<?xml version="1.0" encoding="UTF-8" standalone="no"?>
<svg
   version="1.1"
   viewBox="0 0 403.01764 416.40149"
   fill="none"
   stroke="none"
   stroke-linecap="square"
   stroke-miterlimit="10"
   id="svg41"
   sodipodi:docname="logo.pptx.svg"
   width="403.01764"
   height="416.40149"
   inkscape:version="1.1.2 (0a00cf5339, 2022-02-04)"
   xmlns:inkscape="http://www.inkscape.org/namespaces/inkscape"
   xmlns:sodipodi="http://sodipodi.sourceforge.net/DTD/sodipodi-0.dtd"
   xmlns="http://www.w3.org/2000/svg"
   xmlns:svg="http://www.w3.org/2000/svg">
  <defs
     id="defs45" />
  <sodipodi:namedview
     id="namedview43"
     pagecolor="#ffffff"
     bordercolor="#666666"
     borderopacity="1.0"
     inkscape:pageshadow="2"
     inkscape:pageopacity="0.0"
     inkscape:pagecheckerboard="0"
     showgrid="false"
     inkscape:zoom="2.090625"
     inkscape:cx="161.9133"
     inkscape:cy="187.7429"
     inkscape:window-width="2482"
     inkscape:window-height="1344"
     inkscape:window-x="74"
     inkscape:window-y="55"
     inkscape:window-maximized="0"
     inkscape:current-layer="svg41" />
  <clipPath
     id="g28d4947b6be_0_61.0">
    <path
       d="M 0,0 H 1280 V 720 H 0 Z"
       clip-rule="nonzero"
       id="path2" />
  </clipPath>
  <g
     id="g160"
     transform="translate(-7.3218551,-4.7906951)">
    <path
       fill="#000000"
       fill-opacity="0"
       d="m 137.30535,62.23677 h 269.7008 v 355.62207 h -269.7008 z"
       fill-rule="evenodd"
       id="path7" />
    <path
       stroke="#ff40ff"
       stroke-width="6.66667"
       stroke-miterlimit="800"
       stroke-linecap="butt"
       stroke-opacity="0.4431"
       stroke-dasharray="26.6667, 20"
       d="m 137.30535,62.23677 h 269.7008 v 355.62207 h -269.7008 z"
       fill-rule="evenodd"
       id="path9" />
    <path
       fill="#000000"
       fill-opacity="0"
       d="M 10.65519,8.12403 H 257.14338 V 363.74607 H 10.65519 Z"
       fill-rule="evenodd"
       id="path11" />
    <path
       stroke="#7b7b7b"
       stroke-width="6.66667"
       stroke-miterlimit="800"
       stroke-linecap="butt"
       stroke-opacity="0.498"
       stroke-dasharray="26.6667, 20"
       d="M 10.65519,8.12403 H 257.14338 V 363.74607 H 10.65519 Z"
       fill-rule="evenodd"
       id="path13" />
    <path
       fill="#262626"
       d="m 183.13642,300.64963 136.38702,49.14508 -106.17273,32.49521 z"
       fill-rule="evenodd"
       id="path15" />
    <path
       fill="#262626"
       d="m 262.65815,349.32587 v 0 c 30.0227,-7.15857 56.2514,-5.15591 58.58337,4.47305 v 0 c 1.11988,4.624 -3.53338,10.42423 -12.93621,16.12467 -9.40278,5.70044 -22.78479,10.83423 -37.20221,14.27191 v 0 c -30.02277,7.15857 -56.25141,5.15588 -58.58344,-4.47308 v 0 c -1.11987,-4.62403 3.53345,-10.42423 12.93622,-16.12467 9.40277,-5.70047 22.78485,-10.83423 37.20227,-14.27188 z"
       fill-rule="evenodd"
       id="path17" />
    <path
       fill="#262626"
       d="M 261.90095,166.97599 173.54939,162.3321 204.1631,101.75272 Z"
       fill-rule="evenodd"
       id="path19" />
    <path
       fill="#262626"
       d="M 309.67951,214.79429 215.25037,105.50932 323.69098,128.81874 Z"
       fill-rule="evenodd"
       id="path21" />
    <path
       fill="#262626"
       d="m 264.50629,133.59616 v 0 c -29.66174,-8.36352 -51.49878,-22.8779 -48.77441,-32.41876 v 0 c 1.30828,-4.58168 8.22143,-7.38024 19.21862,-7.78002 10.9972,-0.39976 25.17755,1.63199 39.42163,5.6483 v 0 c 29.66175,8.36354 51.49878,22.8779 48.77442,32.41877 v 0 c -1.30829,4.58169 -8.22144,7.38025 -19.21863,7.78003 -10.99713,0.39975 -25.17755,-1.63199 -39.42163,-5.64832 z"
       fill-rule="evenodd"
       id="path23" />
    <path
       fill="#262626"
       d="m 304.22545,281.26123 24.18994,-142.56421 50.99805,98.51071 z"
       fill-rule="evenodd"
       id="path25" />
    <path
       fill="#262626"
       d="m 338.12525,194.58661 v 0 c -12.38043,-28.17917 -15.03906,-54.26556 -5.93829,-58.26559 v 0 c 4.3703,-1.9209 10.9234,1.61251 18.21765,9.8229 7.29425,8.21036 14.73211,20.42517 20.67743,33.95731 v 0 c 12.38037,28.17917 15.03906,54.26556 5.93829,58.26556 v 0 c -4.37036,1.9209 -10.92346,-1.61252 -18.21771,-9.82287 -7.29419,-8.21039 -14.73212,-20.4252 -20.67737,-33.95731 z"
       fill-rule="evenodd"
       id="path27" />
    <path
       fill="#262626"
       d="M 248.0824,317.75107 374.63794,247.79196 329.40118,349.08023 248.08239,317.75107 Z"
       fill-rule="evenodd"
       id="path29" />
    <path
       fill="#262626"
       d="m 336.98905,290.22577 v 0 c 14.31634,-27.24744 33.05676,-45.5885 41.85791,-40.96594 v 0 c 4.22644,2.21985 5.54871,9.54666 3.67596,20.36859 -1.87274,10.82193 -6.78717,24.2525 -13.6621,37.33719 v 0 c -14.31635,27.24744 -33.0567,45.5885 -41.85785,40.96591 v 0 c -4.22645,-2.21982 -5.54877,-9.54663 -3.67603,-20.36856 1.8728,-10.82193 6.78717,-24.25253 13.66211,-37.33719 z"
       fill-rule="evenodd"
       id="path31" />
    <path
       fill="#262626"
       d="m 166.14475,92.82775 h 68.44092 v 295.55902 h -68.44092 z"
       fill-rule="evenodd"
       id="path33" />
    <path
       fill="#00b0f0"
       d="M 31.78327,39.86303 H 234.58643 V 92.83941 H 31.78327 Z"
       fill-rule="evenodd"
       id="path35" />
    <path
       fill="#00b0f0"
       d="m 97.58685,40.82775 h 68.44092 V 336.38683 H 97.58685 Z"
       fill-rule="evenodd"
       id="path37" />
  </g>
</svg>
