<?xml version="1.0" encoding="UTF-8" standalone="no"?>
<svg
   version="1.1"
   viewBox="0 0 585.82678 585.82672"
   fill="none"
   stroke="none"
   stroke-linecap="square"
   stroke-miterlimit="10"
   id="svg43"
   sodipodi:docname="logo.pptx (1).svg"
   width="585.82678"
   height="585.82672"
   inkscape:version="1.1.2 (0a00cf5339, 2022-02-04)"
   xmlns:inkscape="http://www.inkscape.org/namespaces/inkscape"
   xmlns:sodipodi="http://sodipodi.sourceforge.net/DTD/sodipodi-0.dtd"
   xmlns="http://www.w3.org/2000/svg"
   xmlns:svg="http://www.w3.org/2000/svg">
  <defs
     id="defs47" />
  <sodipodi:namedview
     id="namedview45"
     pagecolor="#ffffff"
     bordercolor="#666666"
     borderopacity="1.0"
     inkscape:pageshadow="2"
     inkscape:pageopacity="0.0"
     inkscape:pagecheckerboard="0"
     showgrid="false"
     inkscape:zoom="1.0453125"
     inkscape:cx="293.21375"
     inkscape:cy="297.04036"
     inkscape:window-width="2482"
     inkscape:window-height="1344"
     inkscape:window-x="74"
     inkscape:window-y="55"
     inkscape:window-maximized="0"
     inkscape:current-layer="svg43" />
  <clipPath
     id="g28d4947b6be_0_84.0">
    <path
       d="M 0,0 H 1280 V 720 H 0 Z"
       clip-rule="nonzero"
       id="path2" />
  </clipPath>
  <g
     id="g244"
     transform="translate(-347.08659,-63.51443)">
    <path
       fill="#000000"
       fill-opacity="0"
       d="m 347.0866,356.42783 v 0 c 0,-161.7716 131.14178,-292.9134 292.9134,-292.9134 v 0 c 77.68549,0 152.18915,30.860428 207.12103,85.79234 54.93195,54.93191 85.79236,129.4356 85.79236,207.12105 v 0 c 0,161.77158 -131.14178,292.91336 -292.9134,292.91336 v 0 c -161.7716,0 -292.9134,-131.14178 -292.9134,-292.91336 z"
       fill-rule="evenodd"
       id="path7" />
    <path
       fill="#000000"
       fill-opacity="0"
       d="M 571.3771,200.17665 H 841.07784 V 555.79872 H 571.3771 Z"
       fill-rule="evenodd"
       id="path9" />
    <path
       stroke="#ff40ff"
       stroke-width="6.66667"
       stroke-miterlimit="800"
       stroke-linecap="butt"
       stroke-opacity="0.4431"
       stroke-dasharray="26.6667, 20"
       d="M 571.3771,200.17665 H 841.07784 V 555.79872 H 571.3771 Z"
       fill-rule="evenodd"
       id="path11" />
    <path
       fill="#000000"
       fill-opacity="0"
       d="M 444.72687,146.0639 H 691.21509 V 501.68594 H 444.72687 Z"
       fill-rule="evenodd"
       id="path13" />
    <path
       stroke="#7b7b7b"
       stroke-width="6.66667"
       stroke-miterlimit="800"
       stroke-linecap="butt"
       stroke-opacity="0.498"
       stroke-dasharray="26.6667, 20"
       d="M 444.72687,146.0639 H 691.21509 V 501.68594 H 444.72687 Z"
       fill-rule="evenodd"
       id="path15" />
    <path
       fill="#262626"
       d="m 617.2081,438.5895 136.38696,49.14508 -106.17273,32.49521 z"
       fill-rule="evenodd"
       id="path17" />
    <path
       fill="#262626"
       d="m 696.7298,487.26575 v 0 c 30.02277,-7.15857 56.2514,-5.15591 58.58343,4.47305 v 0 c 1.11988,4.624 -3.53344,10.42423 -12.93621,16.12467 -9.40277,5.70044 -22.78485,10.83423 -37.20227,14.27191 v 0 c -30.02271,7.15857 -56.25141,5.15588 -58.58344,-4.47308 v 0 c -1.11981,-4.62403 3.53345,-10.42423 12.93622,-16.12467 9.40283,-5.70047 22.78485,-10.83423 37.20227,-14.27188 z"
       fill-rule="evenodd"
       id="path19" />
    <path
       fill="#262626"
       d="m 695.9726,304.91586 -88.35156,-4.64389 30.61377,-60.57938 z"
       fill-rule="evenodd"
       id="path21" />
    <path
       fill="#262626"
       d="M 743.75116,352.73416 649.32202,243.44919 757.76269,266.75861 Z"
       fill-rule="evenodd"
       id="path23" />
    <path
       fill="#262626"
       d="m 698.578,271.53604 v 0 c -29.66174,-8.36352 -51.49878,-22.8779 -48.77441,-32.41876 v 0 c 1.30828,-4.58168 8.22143,-7.38024 19.21856,-7.78002 10.9972,-0.39976 25.17761,1.63199 39.42163,5.6483 v 0 c 29.66175,8.36354 51.49878,22.87793 48.77442,32.41877 v 0 c -1.30829,4.58169 -8.22144,7.38025 -19.21857,7.78003 -10.99719,0.39975 -25.17755,-1.63199 -39.42163,-5.64832 z"
       fill-rule="evenodd"
       id="path25" />
    <path
       fill="#262626"
       d="m 738.2971,419.2011 24.19,-142.56421 50.99805,98.51071 z"
       fill-rule="evenodd"
       id="path27" />
    <path
       fill="#262626"
       d="m 772.1969,332.5265 v 0 c -12.38037,-28.17917 -15.03906,-54.26556 -5.93829,-58.26559 v 0 c 4.37036,-1.9209 10.92346,1.61251 18.21771,9.8229 7.29425,8.21036 14.73212,20.42517 20.67737,33.95731 v 0 c 12.38043,28.17917 15.03906,54.26556 5.93829,58.26559 v 0 c -4.3703,1.92087 -10.9234,-1.61255 -18.21765,-9.8229 -7.29425,-8.21039 -14.73212,-20.42521 -20.67743,-33.95731 z"
       fill-rule="evenodd"
       id="path29" />
    <path
       fill="#262626"
       d="m 682.15405,455.69095 126.5556,-69.95911 -45.23682,101.28827 -81.31879,-31.32916 z"
       fill-rule="evenodd"
       id="path31" />
    <path
       fill="#262626"
       d="m 771.0608,428.16565 v 0 c 14.31628,-27.24744 33.0567,-45.5885 41.85785,-40.96594 v 0 c 4.22644,2.21985 5.54877,9.54666 3.67596,20.36859 -1.87274,10.82193 -6.78717,24.2525 -13.6621,37.33719 v 0 c -14.31629,27.24744 -33.0567,45.5885 -41.85785,40.96591 v 0 c -4.22645,-2.21982 -5.54871,-9.54663 -3.67597,-20.36856 1.87274,-10.82193 6.78717,-24.25253 13.66211,-37.33719 z"
       fill-rule="evenodd"
       id="path33" />
    <path
       fill="#262626"
       d="m 600.21643,230.76762 h 68.44092 v 295.55902 h -68.44092 z"
       fill-rule="evenodd"
       id="path35" />
    <path
       fill="#00b0f0"
       d="m 465.85495,177.8029 h 202.80313 v 52.97638 H 465.85495 Z"
       fill-rule="evenodd"
       id="path37" />
    <path
       fill="#00b0f0"
       d="m 531.6585,178.76762 h 68.44098 V 474.3267 H 531.6585 Z"
       fill-rule="evenodd"
       id="path39" />
  </g>
</svg>
