<?xml version="1.0" encoding="UTF-8" standalone="no"?>
<svg
   version="1.1"
   viewBox="0 0 403.01764 416.40149"
   fill="none"
   stroke="none"
   stroke-linecap="square"
   stroke-miterlimit="10"
   id="svg41"
   sodipodi:docname="logo_squared.svg"
   width="403.01764"
   height="416.40149"
   inkscape:version="1.1.2 (0a00cf5339, 2022-02-04)"
   xmlns:inkscape="http://www.inkscape.org/namespaces/inkscape"
   xmlns:sodipodi="http://sodipodi.sourceforge.net/DTD/sodipodi-0.dtd"
   xmlns="http://www.w3.org/2000/svg"
   xmlns:svg="http://www.w3.org/2000/svg">
  <defs
     id="defs45" />
  <sodipodi:namedview
     id="namedview43"
     pagecolor="#ffffff"
     bordercolor="#666666"
     borderopacity="1.0"
     inkscape:pageshadow="2"
     inkscape:pageopacity="0.0"
     inkscape:pagecheckerboard="0"
     showgrid="false"
     inkscape:zoom="0.36957378"
     inkscape:cx="385.5793"
     inkscape:cy="-807.68717"
     inkscape:window-width="1338"
     inkscape:window-height="1344"
     inkscape:window-x="1218"
     inkscape:window-y="55"
     inkscape:window-maximized="0"
     inkscape:current-layer="svg41" />
  <clipPath
     id="g28d4947b6be_0_61.0">
    <path
       d="M 0,0 H 1280 V 720 H 0 Z"
       clip-rule="nonzero"
       id="path2" />
  </clipPath>
  <g
     id="g1135">
    <path
       fill="#000000"
       fill-opacity="0"
       d="m 129.98349,57.446075 h 269.7008 V 413.06814 h -269.7008 z"
       fill-rule="evenodd"
       id="path7" />
    <path
       stroke="#ff40ff"
       stroke-width="6.66667"
       stroke-miterlimit="800"
       stroke-linecap="butt"
       stroke-opacity="0.4431"
       stroke-dasharray="26.6667, 20"
       d="m 129.98349,57.446075 h 269.7008 V 413.06814 h -269.7008 z"
       fill-rule="evenodd"
       id="path9"
       style="stroke:#75644d;stroke-opacity:0.44313726" />
    <path
       fill="#000000"
       fill-opacity="0"
       d="M 3.3333349,3.3333349 H 249.82152 V 358.95537 H 3.3333349 Z"
       fill-rule="evenodd"
       id="path11" />
    <path
       stroke="#7b7b7b"
       stroke-width="6.66667"
       stroke-miterlimit="800"
       stroke-linecap="butt"
       stroke-opacity="0.498"
       stroke-dasharray="26.6667, 20"
       d="M 3.3333349,3.3333349 H 249.82152 V 358.95537 H 3.3333349 Z"
       fill-rule="evenodd"
       id="path13"
       style="stroke:#3e464b;stroke-opacity:0.49803922" />
    <path
       fill="#262626"
       d="m 175.81456,295.85893 136.38702,49.14508 -106.17273,32.49521 z"
       fill-rule="evenodd"
       id="path15"
       style="fill:#b5854a;fill-opacity:1" />
    <path
       fill="#262626"
       d="m 255.33629,344.53517 v 0 c 30.0227,-7.15857 56.2514,-5.15591 58.58337,4.47305 v 0 c 1.11988,4.624 -3.53338,10.42423 -12.93621,16.12467 -9.40278,5.70044 -22.78479,10.83423 -37.20221,14.27191 v 0 c -30.02277,7.15857 -56.25141,5.15588 -58.58344,-4.47308 v 0 c -1.11987,-4.62403 3.53345,-10.42423 12.93622,-16.12467 9.40277,-5.70047 22.78485,-10.83423 37.20227,-14.27188 z"
       fill-rule="evenodd"
       id="path17"
       style="fill:#b5854a;fill-opacity:1" />
    <path
       fill="#262626"
       d="M 254.57909,162.18529 166.22753,157.5414 196.84124,96.962025 Z"
       fill-rule="evenodd"
       id="path19"
       style="fill:#b5854a;fill-opacity:1" />
    <path
       fill="#262626"
       d="M 302.35765,210.00359 207.92851,100.71862 316.36912,124.02804 Z"
       fill-rule="evenodd"
       id="path21"
       style="fill:#b5854a;fill-opacity:1" />
    <path
       fill="#262626"
       d="m 257.18443,128.80546 v 0 c -29.66174,-8.36352 -51.49878,-22.8779 -48.77441,-32.418755 v 0 c 1.30828,-4.58168 8.22143,-7.38024 19.21862,-7.78002 10.9972,-0.39976 25.17755,1.63199 39.42163,5.6483 v 0 c 29.66175,8.363535 51.49878,22.877895 48.77442,32.418765 v 0 c -1.30829,4.58169 -8.22144,7.38025 -19.21863,7.78003 -10.99713,0.39975 -25.17755,-1.63199 -39.42163,-5.64832 z"
       fill-rule="evenodd"
       id="path23"
       style="fill:#b5854a;fill-opacity:1" />
    <path
       fill="#262626"
       d="m 296.90359,276.47053 24.18994,-142.56421 50.99805,98.51071 z"
       fill-rule="evenodd"
       id="path25"
       style="fill:#b5854a;fill-opacity:1" />
    <path
       fill="#262626"
       d="m 330.80339,189.79591 v 0 c -12.38043,-28.17917 -15.03906,-54.26556 -5.93829,-58.26559 v 0 c 4.3703,-1.9209 10.9234,1.61251 18.21765,9.8229 7.29425,8.21036 14.73211,20.42517 20.67743,33.95731 v 0 c 12.38037,28.17917 15.03906,54.26556 5.93829,58.26556 v 0 c -4.37036,1.9209 -10.92346,-1.61252 -18.21771,-9.82287 -7.29419,-8.21039 -14.73212,-20.4252 -20.67737,-33.95731 z"
       fill-rule="evenodd"
       id="path27"
       style="fill:#b5854a;fill-opacity:1" />
    <path
       fill="#262626"
       d="M 240.76054,312.96037 367.31608,243.00126 322.07932,344.28953 240.76053,312.96037 Z"
       fill-rule="evenodd"
       id="path29"
       style="fill:#b5854a;fill-opacity:1" />
    <path
       fill="#262626"
       d="m 329.66719,285.43507 v 0 c 14.31634,-27.24744 33.05676,-45.5885 41.85791,-40.96594 v 0 c 4.22644,2.21985 5.54871,9.54666 3.67596,20.36859 -1.87274,10.82193 -6.78717,24.2525 -13.6621,37.33719 v 0 c -14.31635,27.24744 -33.0567,45.5885 -41.85785,40.96591 v 0 c -4.22645,-2.21982 -5.54877,-9.54663 -3.67603,-20.36856 1.8728,-10.82193 6.78717,-24.25253 13.66211,-37.33719 z"
       fill-rule="evenodd"
       id="path31"
       style="fill:#b5854a;fill-opacity:1" />
    <path
       fill="#262626"
       d="m 158.82289,88.037055 h 68.44092 V 383.59607 h -68.44092 z"
       fill-rule="evenodd"
       id="path33"
       style="fill:#b5854a;fill-opacity:1" />
    <path
       fill="#00b0f0"
       d="M 24.461415,35.072335 H 227.26457 v 52.97638 H 24.461415 Z"
       fill-rule="evenodd"
       id="path35"
       style="fill:#336b87;fill-opacity:1" />
    <path
       fill="#00b0f0"
       d="M 90.264995,36.037055 H 158.70591 V 331.59613 H 90.264995 Z"
       fill-rule="evenodd"
       id="path37"
       style="fill:#336b87;fill-opacity:1" />
  </g>
</svg>
