<?xml version="1.0" encoding="UTF-8" standalone="no"?>
<svg
   version="1.0"
   width="500.000000pt"
   height="500.000000pt"
   viewBox="0 0 500.000000 500.000000"
   preserveAspectRatio="xMidYMid meet"
   id="svg8"
   sodipodi:docname="safari-pinned-tab.svg"
   inkscape:version="1.1.2 (0a00cf5339, 2022-02-04)"
   xmlns:inkscape="http://www.inkscape.org/namespaces/inkscape"
   xmlns:sodipodi="http://sodipodi.sourceforge.net/DTD/sodipodi-0.dtd"
   xmlns="http://www.w3.org/2000/svg"
   xmlns:svg="http://www.w3.org/2000/svg">
  <defs
     id="defs12" />
  <sodipodi:namedview
     id="namedview10"
     pagecolor="#ffffff"
     bordercolor="#666666"
     borderopacity="1.0"
     inkscape:pageshadow="2"
     inkscape:pageopacity="0.0"
     inkscape:pagecheckerboard="0"
     inkscape:document-units="pt"
     showgrid="false"
     inkscape:zoom="1.3095"
     inkscape:cx="332.95151"
     inkscape:cy="333.71516"
     inkscape:window-width="1239"
     inkscape:window-height="663"
     inkscape:window-x="1317"
     inkscape:window-y="735"
     inkscape:window-maximized="0"
     inkscape:current-layer="svg8" />
  <metadata
     id="metadata2">
Created by potrace 1.11, written by Peter Selinger 2001-2013
</metadata>
  <path
     d="m 223,1.6 c -10.6,1.2 -12.9,1.6 -23,3.5 -8.9,1.7 -9.2,1.7 -20.1,5 C 150.3,18.8 123.4,32.6 97,52.4 86.2,60.5 64.1,82.1 55.8,92.5 36,117.7 18.6,150.2 11,176.5 c -2.6,9.3 -5.9,22.3 -6.5,26 -0.4,2.2 -0.9,5.2 -1.1,6.6 -2.2,12.7 -3.1,26.9 -2.9,45.4 0.2,11.5 0.5,21.9 0.8,23 0.2,1.1 0.8,4.2 1.1,7 1.2,8.2 1.6,10.6 3.7,20 1.2,4.9 2.2,9.4 2.3,10 1,4.5 7.6,23.8 10.7,31.4 12.5,29.9 30.1,56.2 53.9,80.1 35.8,36.1 77.5,58.5 128,69.1 9.7,2 12.8,2.5 26,3.9 8,0.8 47.5,0.6 50,-0.3 0.8,-0.3 3.4,-0.8 5.8,-1.1 10.9,-1.5 13.4,-1.9 23.4,-4.1 27.6,-6.2 58.2,-19.3 82,-35.3 47.4,-31.8 82.6,-78.3 99.8,-131.9 3.1,-9.7 3.6,-11.4 4.6,-16.3 0.3,-1.4 0.9,-4.1 1.4,-6 3.9,-15.1 5.5,-31.2 5.5,-55 -0.1,-24.2 -2.2,-41.5 -7.9,-63.5 -1.6,-6.2 -2.8,-10.3 -3.6,-12 -0.5,-1.1 -1.3,-3.6 -1.9,-5.5 C 480.7,147.7 459.4,110.4 440.9,88.5 437.2,84.1 418.5,65.3 412.8,60.3 406,54.3 389.4,42.3 380.2,36.6 370.5,30.7 345,18 342.7,18 342,18 341,17.6 340.5,17.1 338,14.9 308.6,6.3 297,4.5 294.5,4.1 291.8,3.6 291,3.5 290.2,3.4 287.3,2.9 284.5,2.6 281.8,2.2 277.9,1.7 276,1.4 268.5,0.2 233.1,0.3 223,1.6 Z"
     id="path4"
     style="fill:#000000;stroke:none;stroke-width:0.1" />
  <path
     style="fill:#ffffff;stroke:none;stroke-width:0.76365"
     d="M 296.88562,664.36203 C 263.46483,660.60876 225.34186,649.84719 192.82169,634.98625 148.27,614.62719 105.48693,580.6597 72.577705,539.5189 36.136382,493.96251 13.499489,441.71152 3.7404732,380.6272 1.9771899,369.59033 1.6888394,365.12473 1.3457884,343.54141 0.66752509,300.86795 3.0133781,280.45588 12.743057,244.36987 19.687782,218.61288 28.045752,198.36609 42.173136,173.07691 52.261136,155.01856 63.49648,137.99818 74.255803,124.47499 85.559901,110.26709 111.03316,85.160443 127.03135,72.459005 166.60807,41.037861 218.81838,16.639353 266.508,7.2798836 292.19338,2.2389198 299.98642,1.5859799 334.47881,1.5849496 l 31.30966,-9.317e-4 15.273,2.3884182 c 8.40016,1.31363 19.39672,3.3087324 24.43681,4.4335608 13.17764,2.9409361 37.1623,9.9597271 44.29172,12.9613811 3.36006,1.414666 8.85834,3.685754 12.2184,5.046863 8.25784,3.345121 35.029,17.01002 43.94327,22.43012 8.64731,5.25778 24.81106,16.58204 35.85818,25.122088 9.76001,7.545036 42.74047,40.277101 50.06231,49.685251 17.42137,22.38549 35.13331,51.30611 46.33729,75.66101 2.51182,5.4601 7.08026,17.4876 10.15209,26.72776 12.5694,37.80905 17.15965,66.71447 17.15965,108.05651 0,30.56643 -2.11866,49.75482 -8.34745,75.60138 -9.49788,39.41177 -24.83667,74.63489 -46.88964,107.67468 -13.00353,19.48191 -24.06486,32.81696 -42.46351,51.19211 -15.59023,15.57031 -27.00913,25.33792 -42.91757,36.71125 -36.65654,26.20664 -85.98605,47.10583 -129.33219,54.79353 -29.76882,5.27968 -25.92981,4.94348 -58.80107,5.14943 -21.99489,0.1378 -33.16015,-0.1022 -39.88414,-0.85733 z"
     id="path52"
     transform="scale(0.75)" />
  <path
     style="fill:#ffffff;stroke-width:0.76365"
     d="M 294.38717,663.63591 C 263.33857,659.67774 230.37608,650.57217 199.76545,637.49758 136.56297,610.50216 78.115945,557.26132 43.04335,494.73553 24.034181,460.84687 11.66759,424.61594 4.1130105,380.67965 2.6893505,372.39985 2.4235326,367.24605 2.1084889,341.81496 1.7079562,309.483 2.3621834,297.1567 5.4529863,278.80124 9.280701,256.06946 17.925467,225.81068 25.97874,206.95611 37.395275,180.22738 57.945006,145.62076 74.954923,124.47815 82.453456,115.15779 105.03937,92.097274 116.83849,81.714486 147.75514,54.508973 190.9628,30.317656 233.29515,16.512173 c 12.4758,-4.068626 21.49945,-6.408515 35.50974,-9.2078971 21.72139,-4.3401326 26.50852,-4.7378151 62.26757,-5.17278 l 33.24887,-0.4044315 15.24292,2.43971 c 39.77086,6.3655326 67.55461,14.9191396 98.18011,30.2260806 41.79889,20.891513 68.16004,40.67851 101.69235,76.331495 15.54507,16.52817 29.13948,35.47018 44.07868,61.4178 20.27396,35.21345 34.41242,77.75072 39.3625,118.42677 2.59939,21.35989 2.6142,65.33202 0.0289,85.91065 -4.36171,34.71905 -16.80099,74.6523 -33.32315,106.97589 -17.88958,34.99877 -40.67724,65.00472 -70.57845,92.93509 -26.50245,24.75563 -48.69153,39.98769 -80.96015,55.57641 -30.93582,14.94486 -55.99194,22.96337 -92.01986,29.4484 l -15.65483,2.81788 -33.98243,0.21243 c -24.98508,0.15619 -36.10541,-0.0582 -42.00077,-0.80976 z"
     id="path128"
     transform="scale(0.75)" />
  <path
     style="fill:#ffffff;stroke-width:0.76365"
     d="M 299.73272,664.23785 C 262.76369,660.43036 218.39037,647.3764 184.03971,630.20268 145.65519,611.01223 108.07197,580.9816 78.672776,546.00993 39.238582,499.10116 15.566897,446.98817 4.4480915,382.605 2.6131769,371.97997 2.440468,368.97183 2.106182,341.81496 c -0.5105926,-41.47972 1.0091083,-57.01013 8.564056,-87.51943 7.9828,-32.2371 17.27189,-55.25059 34.408619,-85.24653 7.873119,-13.78102 21.640447,-34.33015 29.863311,-44.57401 8.046431,-10.02406 33.157072,-35.378793 45.039622,-45.477434 40.83664,-34.705873 96.1979,-61.394341 148.7301,-71.6995674 22.25245,-4.3652556 26.6858,-4.7325529 62.36057,-5.1664927 l 33.24887,-0.4044315 15.24292,2.43971 c 40.18541,6.4318846 67.29454,14.7900246 98.41011,30.3412696 41.36635,20.674484 67.21534,40.000656 100.26808,74.966116 16.55394,17.5119 30.3605,36.61109 45.29592,62.65976 20.40853,35.59427 34.27675,77.35938 39.32667,118.435 2.61356,21.25842 2.63294,65.31936 0.0378,85.91065 -4.23593,33.6102 -15.66554,71.1497 -31.39051,103.09929 -17.83088,36.22829 -41.54223,67.88777 -72.5071,96.81169 -25.89939,24.19232 -46.27209,38.34506 -77.14191,53.58983 -25.47332,12.57977 -45.77444,20.18973 -69.11034,25.90629 -12.62074,3.09169 -34.16345,7.01286 -44.52793,8.10491 -6.45026,0.67962 -62.3336,0.88055 -68.49231,0.24627 z"
     id="path167"
     transform="scale(0.75)" />
  <path
     style="fill:#ffffff;stroke-width:0.76365"
     d=""
     id="path206"
     transform="scale(0.75)" />
</svg>
